<svg version="1.1" viewBox="0.0 0.0 134.0 32.0" fill="none" stroke="none" stroke-linecap="square" stroke-miterlimit="10" xmlns:xlink="http://www.w3.org/1999/xlink" xmlns="http://www.w3.org/2000/svg"><clipPath id="p.0"><path d="m0 0l134.0 0l0 32.0l-134.0 0l0 -32.0z" clip-rule="nonzero"/></clipPath><g clip-path="url(#p.0)"><path fill="#000000" fill-opacity="0.0" d="m0 0l134.0 0l0 32.0l-134.0 0z" fill-rule="evenodd"/><path fill="#000000" fill-opacity="0.0" d="m0.007874016 0l133.98425 0l0 32.0l-133.98425 0z" fill-rule="evenodd"/><path fill="#ffffff" d="m13.687684 20.128124l0 -8.328125l9.999999 0l0 1.671875l1.65625 0l0 6.65625l-3.328125 0l0 -6.65625l-1.671875 0l0 6.65625l-3.328125 0l0 -6.65625l-1.656249 0l0 6.65625l-1.671875 0zm13.328078 0l0 -11.65625l8.328125 0l0 1.671875l1.671875 0l0 1.65625l1.65625 0l0 5.0l-1.65625 0l0 1.671875l-1.671875 0l0 1.65625l-8.328125 0zm3.328125 -1.65625l3.328125 0l0 -1.671875l1.671875 0l0 -5.0l-1.671875 0l0 -1.65625l-3.328125 0l0 8.328125zm11.671829 1.65625l0 -1.65625l-1.671875 0l0 -5.0l1.671875 0l0 -1.671875l8.328125 0l0 1.671875l1.65625 0l0 3.328125l-8.328125 0l0 1.671875l6.671875 0l0 1.65625l-8.328125 0zm1.65625 -4.984375l5.0 0l0 -1.671875l-5.0 0l0 1.671875zm14.999954 4.984375l0 -1.65625l-1.671875 0l0 -1.671875l-1.65625 0l0 -5.0l3.328125 0l0 5.0l3.328125 0l0 -5.0l3.328125 0l0 5.0l-1.65625 0l0 1.671875l-1.671875 0l0 1.65625l-3.328125 0zm11.656204 0l0 -1.65625l-1.65625 0l0 -1.671875l-1.671875 0l0 -5.0l1.671875 0l0 -1.65625l1.65625 0l0 -1.671875l6.671875 0l0 1.671875l1.65625 0l0 1.65625l-3.328125 0l0 -1.65625l-3.328125 0l0 1.65625l-1.671875 0l0 5.0l1.671875 0l0 1.671875l3.328125 0l0 -1.671875l3.328125 0l0 1.671875l-1.65625 0l0 1.65625l-6.671875 0zm11.671829 0l0 -1.65625l-1.671875 0l0 -5.0l1.671875 0l0 -1.671875l8.328125 0l0 1.671875l1.65625 0l0 5.0l-1.65625 0l0 1.65625l-8.328125 0zm1.65625 -1.65625l5.0 0l0 -5.0l-5.0 0l0 5.0zm9.999954 1.65625l0 -8.328125l10.0 0l0 1.671875l1.65625 0l0 6.65625l-3.328125 0l0 -6.65625l-5.0 0l0 6.65625l-3.328125 0zm18.32808 0l0 -6.65625l-3.328125 0l0 -1.671875l3.328125 0l0 -1.65625l1.65625 0l0 -1.671875l5.0 0l0 1.671875l-3.328125 0l0 1.65625l3.328125 0l0 1.671875l-3.328125 0l0 6.65625l-3.328125 0z" fill-rule="nonzero"/></g></svg>